<svg xmlns="http://www.w3.org/2000/svg" xmlns:xlink="http://www.w3.org/1999/xlink" width="500" zoomAndPan="magnify" viewBox="0 0 375 374.999991" height="500" preserveAspectRatio="xMidYMid meet" version="1.0"><defs><g/></defs><g fill="#1e40af" fill-opacity="1"><g transform="translate(15.441769, 189.000184)"><g><path d="M 1.601562 -55.996094 L 1.601562 -37.597656 L 16.800781 -37.597656 L 16.800781 0 L 37.597656 0 L 37.597656 -37.597656 L 52.796875 -37.597656 L 52.796875 -55.996094 Z M 1.601562 -55.996094 "/></g></g></g><g fill="#1e40af" fill-opacity="1"><g transform="translate(69.836484, 189.000184)"><g><path d="M 24.796875 -43.597656 C 12.398438 -43.597656 2.398438 -33.597656 2.398438 -21.199219 C 2.398438 -8.800781 12.398438 1.199219 26 1.199219 C 36.796875 1.199219 42.796875 -5.199219 42.796875 -5.199219 L 35.996094 -16 C 35.996094 -16 32.796875 -12.800781 28.796875 -12.800781 C 22.398438 -12.800781 21.597656 -17.199219 21.597656 -17.199219 L 47.195312 -17.199219 C 47.195312 -17.519531 47.195312 -20.878906 47.195312 -21.199219 C 47.195312 -33.597656 37.199219 -43.597656 24.796875 -43.597656 Z M 21.199219 -24.796875 C 21.199219 -28 22.796875 -29.597656 24.796875 -29.597656 C 26.796875 -29.597656 28.398438 -28 28.398438 -24.796875 Z M 21.199219 -24.796875 "/></g></g></g><g fill="#1e40af" fill-opacity="1"><g transform="translate(118.631743, 189.000184)"><g><path d="M 22.398438 -21.199219 C 22.398438 -24.796875 24.796875 -27.199219 28.796875 -27.199219 C 32.796875 -27.199219 35.996094 -24 35.996094 -24 L 43.996094 -36.796875 C 43.996094 -36.796875 37.597656 -43.597656 26 -43.597656 C 12.398438 -43.597656 2.398438 -33.597656 2.398438 -21.199219 C 2.398438 -8.800781 12.398438 1.199219 26 1.199219 C 37.597656 1.199219 43.996094 -5.601562 43.996094 -5.601562 L 35.996094 -18.398438 C 35.996094 -18.398438 32.796875 -15.199219 28.796875 -15.199219 C 24.796875 -15.199219 22.398438 -17.597656 22.398438 -21.199219 Z M 22.398438 -21.199219 "/></g></g></g><g fill="#1e40af" fill-opacity="1"><g transform="translate(163.427394, 189.000184)"><g><path d="M 34.398438 -43.597656 C 27.199219 -43.597656 23.199219 -36.796875 23.199219 -36.796875 L 23.199219 -59.195312 L 4 -59.195312 L 4 0 L 23.199219 0 L 23.199219 -22.398438 C 23.199219 -25.597656 24.796875 -27.199219 26.398438 -27.199219 C 28 -27.199219 29.597656 -25.597656 29.597656 -22.398438 L 29.597656 0 L 48.796875 0 L 48.796875 -22.398438 C 48.796875 -37.199219 42.398438 -43.597656 34.398438 -43.597656 Z M 34.398438 -43.597656 "/></g></g></g><g fill="#000000" fill-opacity="1"><g transform="translate(214.502628, 188.249988)"><g><path d="M 6.578125 -14.464844 L 6.578125 -17.480469 L 2.085938 -17.480469 L 2.085938 -14.464844 Z M 6.542969 0 L 6.542969 -12.523438 L 2.160156 -12.523438 L 2.160156 0 Z M 6.542969 0 "/></g></g></g><g fill="#000000" fill-opacity="1"><g transform="translate(223.204887, 188.249988)"><g><path d="M 6.53125 0 L 6.53125 -5.371094 C 6.53125 -8.300781 8.59375 -9.765625 10.9375 -9.765625 C 13.828125 -9.765625 14.585938 -7.691406 14.585938 -5.382812 L 14.585938 0 L 18.957031 0 L 18.957031 -5.90625 C 18.957031 -10.4375 17.210938 -12.976562 12.644531 -12.976562 C 9.910156 -12.976562 7.554688 -11.863281 6.480469 -9.851562 L 6.480469 -12.523438 L 2.160156 -12.523438 L 2.160156 0 Z M 6.53125 0 "/></g></g></g><g fill="#000000" fill-opacity="1"><g transform="translate(244.23432, 188.249988)"><g><path d="M 6.53125 0 L 6.53125 -5.371094 C 6.53125 -8.300781 8.59375 -9.765625 10.9375 -9.765625 C 13.828125 -9.765625 14.585938 -7.691406 14.585938 -5.382812 L 14.585938 0 L 18.957031 0 L 18.957031 -5.90625 C 18.957031 -10.4375 17.210938 -12.976562 12.644531 -12.976562 C 9.910156 -12.976562 7.554688 -11.863281 6.480469 -9.851562 L 6.480469 -12.523438 L 2.160156 -12.523438 L 2.160156 0 Z M 6.53125 0 "/></g></g></g><g fill="#000000" fill-opacity="1"><g transform="translate(265.263753, 188.249988)"><g><path d="M 9.617188 0.425781 C 14.195312 0.425781 18.652344 -1.707031 18.652344 -6.296875 C 18.652344 -10.8125 14.160156 -12.976562 9.617188 -12.976562 C 5.054688 -12.976562 0.574219 -10.828125 0.574219 -6.273438 C 0.574219 -1.722656 5.027344 0.425781 9.617188 0.425781 Z M 9.617188 -2.539062 C 6.945312 -2.539062 5.078125 -3.992188 5.078125 -6.273438 C 5.078125 -8.542969 6.945312 -10.007812 9.617188 -10.007812 C 12.277344 -10.007812 14.132812 -8.554688 14.132812 -6.285156 C 14.132812 -3.992188 12.265625 -2.539062 9.617188 -2.539062 Z M 9.617188 -2.539062 "/></g></g></g><g fill="#000000" fill-opacity="1"><g transform="translate(284.462417, 188.249988)"><g><path d="M 11.375 0 L 18.234375 -12.523438 L 13.695312 -12.523438 L 9.703125 -4.417969 L 9.070312 -2.941406 L 8.445312 -4.417969 L 4.503906 -12.523438 L -0.230469 -12.523438 L 6.628906 0 Z M 11.375 0 "/></g></g></g><g fill="#000000" fill-opacity="1"><g transform="translate(302.46498, 188.249988)"><g><path d="M 6.992188 0.4375 C 10.191406 0.4375 12.253906 -0.757812 13.351562 -2.464844 C 13.351562 -1.734375 13.476562 -0.671875 13.546875 0 L 17.871094 0 C 17.515625 -1.195312 17.589844 -2.585938 17.589844 -3.96875 L 17.589844 -7.128906 C 17.589844 -11.144531 15.34375 -12.976562 10.15625 -12.976562 C 7.898438 -12.976562 5.027344 -12.71875 2.234375 -11.363281 L 3.246094 -8.726562 C 5.652344 -9.714844 8.359375 -10.03125 9.667969 -10.019531 C 12.121094 -9.996094 13.21875 -9.433594 13.21875 -7.898438 L 13.21875 -7.789062 C 3.136719 -7.800781 1.21875 -6.542969 1.21875 -3.40625 C 1.21875 -0.902344 3.355469 0.4375 6.992188 0.4375 Z M 8.691406 -2.125 C 6.8125 -2.125 5.773438 -2.601562 5.773438 -3.6875 C 5.773438 -5.382812 7.480469 -5.503906 13.21875 -5.613281 L 13.21875 -5.457031 C 13.21875 -3.210938 10.789062 -2.125 8.691406 -2.125 Z M 8.691406 -2.125 "/></g></g></g><g fill="#000000" fill-opacity="1"><g transform="translate(321.675844, 188.249988)"><g><path d="M 8.59375 0.402344 C 9.886719 0.402344 10.863281 0.355469 12.621094 0.183594 L 12.621094 -2.796875 L 9.851562 -2.796875 C 7.957031 -2.796875 7.140625 -3.625 7.140625 -5.46875 L 7.140625 -9.546875 L 12.21875 -9.546875 L 12.21875 -12.523438 L 7.140625 -12.523438 L 7.140625 -16.699219 L 2.769531 -15.902344 L 2.769531 -12.523438 L 0.144531 -12.523438 L 0.144531 -9.546875 L 2.769531 -9.546875 L 2.769531 -5.503906 C 2.769531 -1.464844 4.871094 0.402344 8.59375 0.402344 Z M 8.59375 0.402344 "/></g></g></g><g fill="#000000" fill-opacity="1"><g transform="translate(334.832966, 188.249988)"><g><path d="M 9.765625 0.425781 C 13.414062 0.425781 15.917969 -0.769531 17.171875 -2.660156 L 14.160156 -4.125 C 13.328125 -3.222656 11.863281 -2.550781 9.644531 -2.550781 C 7.054688 -2.550781 5.003906 -3.453125 4.710938 -5.1875 L 17.722656 -5.1875 L 17.722656 -5.785156 C 17.722656 -9.921875 14.355469 -12.976562 9.363281 -12.976562 C 3.84375 -12.976562 0.574219 -10.253906 0.574219 -6.210938 C 0.574219 -2.085938 4.175781 0.425781 9.765625 0.425781 Z M 4.761719 -7.726562 C 5.039062 -9.335938 6.699219 -10.289062 9.226562 -10.289062 C 11.863281 -10.289062 13.378906 -9.128906 13.511719 -7.726562 Z M 4.761719 -7.726562 "/></g></g></g><g fill="#000000" fill-opacity="1"><g transform="translate(81.326352, 218.799991)"><g><path d="M 8.265625 -12.453125 L 8.265625 0 L 5.734375 0 L 5.734375 -12.453125 L 0.75 -12.453125 L 0.75 -14.65625 L 13.265625 -14.65625 L 13.265625 -12.453125 Z M 8.265625 -12.453125 "/></g></g></g><g fill="#000000" fill-opacity="1"><g transform="translate(95.337856, 218.799991)"><g><path d="M 11.8125 0 L 11.8125 -6.34375 L 4.265625 -6.34375 L 4.265625 0 L 1.734375 0 L 1.734375 -14.65625 L 4.265625 -14.65625 L 4.265625 -8.453125 L 11.8125 -8.453125 L 11.8125 -14.65625 L 14.34375 -14.65625 L 14.34375 0 Z M 11.8125 0 "/></g></g></g><g fill="#000000" fill-opacity="1"><g transform="translate(111.416987, 218.799991)"><g><path d="M 1.734375 0 L 1.734375 -14.65625 L 12.34375 -14.65625 L 12.34375 -12.453125 L 4.265625 -12.453125 L 4.265625 -8.640625 L 10.34375 -8.640625 L 10.34375 -6.5625 L 4.265625 -6.5625 L 4.265625 -2.203125 L 12.34375 -2.203125 L 12.34375 0 Z M 1.734375 0 "/></g></g></g><g fill="#000000" fill-opacity="1"><g transform="translate(124.790609, 218.799991)"><g/></g></g><g fill="#000000" fill-opacity="1"><g transform="translate(130.509588, 218.799991)"><g><path d="M 4.265625 -12.453125 L 4.265625 -8.25 L 10.234375 -8.25 L 10.234375 -6.140625 L 4.265625 -6.140625 L 4.265625 0 L 1.734375 0 L 1.734375 -14.65625 L 12.1875 -14.65625 L 12.1875 -12.453125 Z M 4.265625 -12.453125 "/></g></g></g><g fill="#000000" fill-opacity="1"><g transform="translate(143.421292, 218.799991)"><g><path d="M 14.125 -5.015625 C 14.125 -4.222656 13.988281 -3.492188 13.71875 -2.828125 C 13.457031 -2.160156 13.0625 -1.582031 12.53125 -1.09375 C 12.007812 -0.601562 11.351562 -0.222656 10.5625 0.046875 C 9.78125 0.328125 8.867188 0.46875 7.828125 0.46875 C 6.816406 0.46875 5.921875 0.332031 5.140625 0.0625 C 4.367188 -0.195312 3.71875 -0.566406 3.1875 -1.046875 C 2.65625 -1.535156 2.257812 -2.113281 2 -2.78125 C 1.738281 -3.445312 1.609375 -4.191406 1.609375 -5.015625 L 1.609375 -14.65625 L 4.15625 -14.65625 L 4.15625 -5.015625 C 4.15625 -3.960938 4.46875 -3.148438 5.09375 -2.578125 C 5.71875 -2.015625 6.660156 -1.734375 7.921875 -1.734375 C 9.210938 -1.734375 10.144531 -2.015625 10.71875 -2.578125 C 11.289062 -3.148438 11.578125 -3.960938 11.578125 -5.015625 L 11.578125 -14.65625 L 14.125 -14.65625 Z M 14.125 -5.015625 "/></g></g></g><g fill="#000000" fill-opacity="1"><g transform="translate(159.148494, 218.799991)"><g><path d="M 8.265625 -12.453125 L 8.265625 0 L 5.734375 0 L 5.734375 -12.453125 L 0.75 -12.453125 L 0.75 -14.65625 L 13.265625 -14.65625 L 13.265625 -12.453125 Z M 8.265625 -12.453125 "/></g></g></g><g fill="#000000" fill-opacity="1"><g transform="translate(173.159998, 218.799991)"><g><path d="M 1.734375 0 L 1.734375 -14.65625 L 12.34375 -14.65625 L 12.34375 -12.453125 L 4.265625 -12.453125 L 4.265625 -8.640625 L 10.34375 -8.640625 L 10.34375 -6.5625 L 4.265625 -6.5625 L 4.265625 -2.203125 L 12.34375 -2.203125 L 12.34375 0 Z M 1.734375 0 "/></g></g></g><g fill="#000000" fill-opacity="1"><g transform="translate(186.53362, 218.799991)"><g><path d="M 12.65625 0.09375 C 11.976562 0.09375 11.5 -0.0976562 11.21875 -0.484375 C 10.9375 -0.878906 10.785156 -1.453125 10.765625 -2.203125 L 10.71875 -4.140625 C 10.695312 -4.460938 10.644531 -4.75 10.5625 -5 C 10.488281 -5.25 10.351562 -5.453125 10.15625 -5.609375 C 9.957031 -5.773438 9.691406 -5.898438 9.359375 -5.984375 C 9.023438 -6.066406 8.613281 -6.109375 8.125 -6.109375 L 4.265625 -6.109375 L 4.265625 0 L 1.734375 0 L 1.734375 -14.65625 L 8.1875 -14.65625 C 9.09375 -14.65625 9.867188 -14.554688 10.515625 -14.359375 C 11.171875 -14.171875 11.707031 -13.90625 12.125 -13.5625 C 12.550781 -13.226562 12.863281 -12.828125 13.0625 -12.359375 C 13.257812 -11.890625 13.359375 -11.378906 13.359375 -10.828125 L 13.359375 -10.34375 C 13.359375 -9.53125 13.144531 -8.832031 12.71875 -8.25 C 12.289062 -7.675781 11.515625 -7.285156 10.390625 -7.078125 C 10.941406 -7.035156 11.40625 -6.921875 11.78125 -6.734375 C 12.15625 -6.554688 12.453125 -6.332031 12.671875 -6.0625 C 12.890625 -5.800781 13.046875 -5.5 13.140625 -5.15625 C 13.234375 -4.8125 13.28125 -4.457031 13.28125 -4.09375 L 13.3125 -2.375 C 13.3125 -2.007812 13.367188 -1.707031 13.484375 -1.46875 C 13.597656 -1.238281 13.8125 -1.03125 14.125 -0.84375 L 14.125 0.09375 Z M 10.78125 -10.671875 C 10.78125 -10.921875 10.738281 -11.15625 10.65625 -11.375 C 10.570312 -11.59375 10.4375 -11.785156 10.25 -11.953125 C 10.0625 -12.117188 9.8125 -12.253906 9.5 -12.359375 C 9.195312 -12.460938 8.820312 -12.515625 8.375 -12.515625 L 4.265625 -12.515625 L 4.265625 -7.984375 L 8.375 -7.984375 C 9.1875 -7.984375 9.789062 -8.164062 10.1875 -8.53125 C 10.582031 -8.90625 10.78125 -9.398438 10.78125 -10.015625 Z M 10.78125 -10.671875 "/></g></g></g><g fill="#000000" fill-opacity="1"><g transform="translate(201.380978, 218.799991)"><g/></g></g><g fill="#000000" fill-opacity="1"><g transform="translate(207.099956, 218.799991)"><g><path d="M 1.734375 0 L 1.734375 -14.65625 L 4.265625 -14.65625 L 4.265625 0 Z M 1.734375 0 "/></g></g></g><g fill="#000000" fill-opacity="1"><g transform="translate(213.104888, 218.799991)"><g><path d="M 13.328125 -4.09375 C 13.328125 -3.4375 13.179688 -2.828125 12.890625 -2.265625 C 12.597656 -1.710938 12.179688 -1.234375 11.640625 -0.828125 C 11.109375 -0.421875 10.472656 -0.101562 9.734375 0.125 C 8.992188 0.351562 8.175781 0.46875 7.28125 0.46875 C 5.988281 0.46875 4.820312 0.238281 3.78125 -0.21875 C 2.738281 -0.675781 1.710938 -1.316406 0.703125 -2.140625 L 2.328125 -3.953125 C 2.816406 -3.554688 3.28125 -3.21875 3.71875 -2.9375 C 4.15625 -2.65625 4.585938 -2.425781 5.015625 -2.25 C 5.453125 -2.070312 5.894531 -1.941406 6.34375 -1.859375 C 6.789062 -1.773438 7.269531 -1.734375 7.78125 -1.734375 C 8.800781 -1.734375 9.554688 -1.9375 10.046875 -2.34375 C 10.535156 -2.75 10.78125 -3.257812 10.78125 -3.875 C 10.78125 -4.414062 10.546875 -4.835938 10.078125 -5.140625 C 9.609375 -5.453125 9.019531 -5.710938 8.3125 -5.921875 C 7.613281 -6.140625 6.851562 -6.34375 6.03125 -6.53125 C 5.207031 -6.71875 4.441406 -6.972656 3.734375 -7.296875 C 3.035156 -7.617188 2.453125 -8.046875 1.984375 -8.578125 C 1.515625 -9.109375 1.28125 -9.804688 1.28125 -10.671875 C 1.28125 -11.285156 1.414062 -11.863281 1.6875 -12.40625 C 1.957031 -12.945312 2.351562 -13.421875 2.875 -13.828125 C 3.394531 -14.234375 4.023438 -14.546875 4.765625 -14.765625 C 5.503906 -14.992188 6.335938 -15.109375 7.265625 -15.109375 C 8.640625 -15.109375 9.847656 -14.851562 10.890625 -14.34375 C 11.941406 -13.832031 12.773438 -13.128906 13.390625 -12.234375 L 11.640625 -10.765625 C 11.097656 -11.390625 10.453125 -11.898438 9.703125 -12.296875 C 8.953125 -12.703125 8.140625 -12.90625 7.265625 -12.90625 C 6.242188 -12.90625 5.410156 -12.726562 4.765625 -12.375 C 4.128906 -12.019531 3.8125 -11.53125 3.8125 -10.90625 C 3.8125 -10.539062 3.945312 -10.234375 4.21875 -9.984375 C 4.488281 -9.734375 4.847656 -9.507812 5.296875 -9.3125 C 5.742188 -9.113281 6.25 -8.9375 6.8125 -8.78125 C 7.382812 -8.632812 7.96875 -8.46875 8.5625 -8.28125 C 9.15625 -8.101562 9.738281 -7.898438 10.3125 -7.671875 C 10.882812 -7.453125 11.394531 -7.179688 11.84375 -6.859375 C 12.289062 -6.535156 12.648438 -6.148438 12.921875 -5.703125 C 13.191406 -5.253906 13.328125 -4.71875 13.328125 -4.09375 Z M 13.328125 -4.09375 "/></g></g></g><g fill="#000000" fill-opacity="1"><g transform="translate(227.402334, 218.799991)"><g/></g></g><g fill="#000000" fill-opacity="1"><g transform="translate(233.121313, 218.799991)"><g><path d="M 14.46875 -5.734375 C 14.46875 -4.921875 14.320312 -4.140625 14.03125 -3.390625 C 13.738281 -2.640625 13.3125 -1.976562 12.75 -1.40625 C 12.1875 -0.832031 11.488281 -0.375 10.65625 -0.03125 C 9.832031 0.300781 8.890625 0.46875 7.828125 0.46875 C 6.773438 0.46875 5.832031 0.300781 5 -0.03125 C 4.175781 -0.375 3.476562 -0.832031 2.90625 -1.40625 C 2.34375 -1.976562 1.914062 -2.640625 1.625 -3.390625 C 1.332031 -4.140625 1.1875 -4.921875 1.1875 -5.734375 L 1.1875 -8.9375 C 1.1875 -9.769531 1.332031 -10.5625 1.625 -11.3125 C 1.914062 -12.0625 2.34375 -12.71875 2.90625 -13.28125 C 3.476562 -13.84375 4.175781 -14.285156 5 -14.609375 C 5.832031 -14.941406 6.773438 -15.109375 7.828125 -15.109375 C 8.890625 -15.109375 9.832031 -14.941406 10.65625 -14.609375 C 11.488281 -14.285156 12.1875 -13.84375 12.75 -13.28125 C 13.3125 -12.71875 13.738281 -12.0625 14.03125 -11.3125 C 14.320312 -10.5625 14.46875 -9.769531 14.46875 -8.9375 Z M 11.921875 -8.953125 C 11.921875 -9.492188 11.832031 -10.003906 11.65625 -10.484375 C 11.476562 -10.972656 11.21875 -11.394531 10.875 -11.75 C 10.53125 -12.113281 10.101562 -12.394531 9.59375 -12.59375 C 9.09375 -12.800781 8.503906 -12.90625 7.828125 -12.90625 C 7.148438 -12.90625 6.554688 -12.800781 6.046875 -12.59375 C 5.546875 -12.394531 5.125 -12.113281 4.78125 -11.75 C 4.4375 -11.394531 4.175781 -10.972656 4 -10.484375 C 3.820312 -10.003906 3.734375 -9.492188 3.734375 -8.953125 L 3.734375 -5.71875 C 3.734375 -5.175781 3.820312 -4.660156 4 -4.171875 C 4.175781 -3.691406 4.4375 -3.269531 4.78125 -2.90625 C 5.125 -2.550781 5.546875 -2.265625 6.046875 -2.046875 C 6.554688 -1.835938 7.148438 -1.734375 7.828125 -1.734375 C 8.503906 -1.734375 9.09375 -1.835938 9.59375 -2.046875 C 10.101562 -2.265625 10.53125 -2.550781 10.875 -2.90625 C 11.21875 -3.269531 11.476562 -3.691406 11.65625 -4.171875 C 11.832031 -4.660156 11.921875 -5.175781 11.921875 -5.71875 Z M 11.921875 -8.953125 "/></g></g></g><g fill="#000000" fill-opacity="1"><g transform="translate(248.782517, 218.799991)"><g><path d="M 14.125 -5.015625 C 14.125 -4.222656 13.988281 -3.492188 13.71875 -2.828125 C 13.457031 -2.160156 13.0625 -1.582031 12.53125 -1.09375 C 12.007812 -0.601562 11.351562 -0.222656 10.5625 0.046875 C 9.78125 0.328125 8.867188 0.46875 7.828125 0.46875 C 6.816406 0.46875 5.921875 0.332031 5.140625 0.0625 C 4.367188 -0.195312 3.71875 -0.566406 3.1875 -1.046875 C 2.65625 -1.535156 2.257812 -2.113281 2 -2.78125 C 1.738281 -3.445312 1.609375 -4.191406 1.609375 -5.015625 L 1.609375 -14.65625 L 4.15625 -14.65625 L 4.15625 -5.015625 C 4.15625 -3.960938 4.46875 -3.148438 5.09375 -2.578125 C 5.71875 -2.015625 6.660156 -1.734375 7.921875 -1.734375 C 9.210938 -1.734375 10.144531 -2.015625 10.71875 -2.578125 C 11.289062 -3.148438 11.578125 -3.960938 11.578125 -5.015625 L 11.578125 -14.65625 L 14.125 -14.65625 Z M 14.125 -5.015625 "/></g></g></g><g fill="#000000" fill-opacity="1"><g transform="translate(264.509719, 218.799991)"><g><path d="M 12.65625 0.09375 C 11.976562 0.09375 11.5 -0.0976562 11.21875 -0.484375 C 10.9375 -0.878906 10.785156 -1.453125 10.765625 -2.203125 L 10.71875 -4.140625 C 10.695312 -4.460938 10.644531 -4.75 10.5625 -5 C 10.488281 -5.25 10.351562 -5.453125 10.15625 -5.609375 C 9.957031 -5.773438 9.691406 -5.898438 9.359375 -5.984375 C 9.023438 -6.066406 8.613281 -6.109375 8.125 -6.109375 L 4.265625 -6.109375 L 4.265625 0 L 1.734375 0 L 1.734375 -14.65625 L 8.1875 -14.65625 C 9.09375 -14.65625 9.867188 -14.554688 10.515625 -14.359375 C 11.171875 -14.171875 11.707031 -13.90625 12.125 -13.5625 C 12.550781 -13.226562 12.863281 -12.828125 13.0625 -12.359375 C 13.257812 -11.890625 13.359375 -11.378906 13.359375 -10.828125 L 13.359375 -10.34375 C 13.359375 -9.53125 13.144531 -8.832031 12.71875 -8.25 C 12.289062 -7.675781 11.515625 -7.285156 10.390625 -7.078125 C 10.941406 -7.035156 11.40625 -6.921875 11.78125 -6.734375 C 12.15625 -6.554688 12.453125 -6.332031 12.671875 -6.0625 C 12.890625 -5.800781 13.046875 -5.5 13.140625 -5.15625 C 13.234375 -4.8125 13.28125 -4.457031 13.28125 -4.09375 L 13.3125 -2.375 C 13.3125 -2.007812 13.367188 -1.707031 13.484375 -1.46875 C 13.597656 -1.238281 13.8125 -1.03125 14.125 -0.84375 L 14.125 0.09375 Z M 10.78125 -10.671875 C 10.78125 -10.921875 10.738281 -11.15625 10.65625 -11.375 C 10.570312 -11.59375 10.4375 -11.785156 10.25 -11.953125 C 10.0625 -12.117188 9.8125 -12.253906 9.5 -12.359375 C 9.195312 -12.460938 8.820312 -12.515625 8.375 -12.515625 L 4.265625 -12.515625 L 4.265625 -7.984375 L 8.375 -7.984375 C 9.1875 -7.984375 9.789062 -8.164062 10.1875 -8.53125 C 10.582031 -8.90625 10.78125 -9.398438 10.78125 -10.015625 Z M 10.78125 -10.671875 "/></g></g></g><g fill="#000000" fill-opacity="1"><g transform="translate(279.357077, 218.799991)"><g><path d="M 13.328125 -4.09375 C 13.328125 -3.4375 13.179688 -2.828125 12.890625 -2.265625 C 12.597656 -1.710938 12.179688 -1.234375 11.640625 -0.828125 C 11.109375 -0.421875 10.472656 -0.101562 9.734375 0.125 C 8.992188 0.351562 8.175781 0.46875 7.28125 0.46875 C 5.988281 0.46875 4.820312 0.238281 3.78125 -0.21875 C 2.738281 -0.675781 1.710938 -1.316406 0.703125 -2.140625 L 2.328125 -3.953125 C 2.816406 -3.554688 3.28125 -3.21875 3.71875 -2.9375 C 4.15625 -2.65625 4.585938 -2.425781 5.015625 -2.25 C 5.453125 -2.070312 5.894531 -1.941406 6.34375 -1.859375 C 6.789062 -1.773438 7.269531 -1.734375 7.78125 -1.734375 C 8.800781 -1.734375 9.554688 -1.9375 10.046875 -2.34375 C 10.535156 -2.75 10.78125 -3.257812 10.78125 -3.875 C 10.78125 -4.414062 10.546875 -4.835938 10.078125 -5.140625 C 9.609375 -5.453125 9.019531 -5.710938 8.3125 -5.921875 C 7.613281 -6.140625 6.851562 -6.34375 6.03125 -6.53125 C 5.207031 -6.71875 4.441406 -6.972656 3.734375 -7.296875 C 3.035156 -7.617188 2.453125 -8.046875 1.984375 -8.578125 C 1.515625 -9.109375 1.28125 -9.804688 1.28125 -10.671875 C 1.28125 -11.285156 1.414062 -11.863281 1.6875 -12.40625 C 1.957031 -12.945312 2.351562 -13.421875 2.875 -13.828125 C 3.394531 -14.234375 4.023438 -14.546875 4.765625 -14.765625 C 5.503906 -14.992188 6.335938 -15.109375 7.265625 -15.109375 C 8.640625 -15.109375 9.847656 -14.851562 10.890625 -14.34375 C 11.941406 -13.832031 12.773438 -13.128906 13.390625 -12.234375 L 11.640625 -10.765625 C 11.097656 -11.390625 10.453125 -11.898438 9.703125 -12.296875 C 8.953125 -12.703125 8.140625 -12.90625 7.265625 -12.90625 C 6.242188 -12.90625 5.410156 -12.726562 4.765625 -12.375 C 4.128906 -12.019531 3.8125 -11.53125 3.8125 -10.90625 C 3.8125 -10.539062 3.945312 -10.234375 4.21875 -9.984375 C 4.488281 -9.734375 4.847656 -9.507812 5.296875 -9.3125 C 5.742188 -9.113281 6.25 -8.9375 6.8125 -8.78125 C 7.382812 -8.632812 7.96875 -8.46875 8.5625 -8.28125 C 9.15625 -8.101562 9.738281 -7.898438 10.3125 -7.671875 C 10.882812 -7.453125 11.394531 -7.179688 11.84375 -6.859375 C 12.289062 -6.535156 12.648438 -6.148438 12.921875 -5.703125 C 13.191406 -5.253906 13.328125 -4.71875 13.328125 -4.09375 Z M 13.328125 -4.09375 "/></g></g></g></svg>